<svg version="1.2" xmlns="http://www.w3.org/2000/svg" viewBox="0 0 300 300" width="300" height="300">
	<style>
		.s0 { fill: #ffb703 } 
		.s1 { fill: #ffffff } 
	</style>
	<path id="NO" class="s0" aria-label="NO"  d="m102.8 97h27.9q1.6 0 2.9 1.2 1.2 1.2 1.2 2.8v96.9q0 1.7-1.2 2.9-1.3 1.2-2.9 1.2h-24.1q-3.6 0-6-3.2l-32.8-41.6v40.7q0 1.7-1.1 2.9-1.3 1.2-2.9 1.2h-27.9q-1.6 0-2.9-1.2-1.1-1.2-1.1-2.9v-96.9q0-1.6 1.1-2.8 1.3-1.2 2.9-1.2h24.3q3.6 0 5.8 3l32.8 45.2v-44.2q0-1.6 1.2-2.8 1.1-1.2 2.8-1.2z"/>
	<path id="NO" class="s1" aria-label="NO"  d="m267.6 140.3l-0.1 18.3q0 15.5-7.5 25.8-7.5 10.4-19.6 14.7-12.2 4.4-28.7 4.4-16.5 0-28.6-4.4-12.2-4.3-19.7-14.7-7.5-10.3-7.5-26.1v-17.7q0-22.6 15.5-33.9 15.6-11.2 40.3-11.2 24.8 0 40.2 11.2 15.6 11.3 15.6 33.6zm-71.1-2.8v24q0 6.1 4.1 9.4 4.2 3.3 11.2 3.3 7.1 0 11.1-3.3 4.2-3.4 4.2-9.6v-23.7q0-6.1-4.2-9.4-4-3.5-11.1-3.5-7 0-11.2 3.3-4.1 3.4-4.1 9.5z"/>
</svg>